<svg width="349" height="92" viewBox="0 0 349 92" fill="none" xmlns="http://www.w3.org/2000/svg">
<rect y="11" width="230" height="70" rx="12" fill="#8F4CF8"/>
<rect x="0.5" y="11.5" width="229" height="69" rx="11.5" stroke="white" stroke-opacity="0.15"/>
<path d="M43.434 40.584L35.882 42.056C34.346 36.296 31.082 33.416 26.09 33.416C22.8473 33.416 20.3087 34.7173 18.474 37.32C16.6393 39.88 15.722 43.528 15.722 48.264C15.722 52.7867 16.682 56.328 18.602 58.888C20.5647 61.448 23.1033 62.728 26.218 62.728C29.034 62.728 31.338 61.96 33.13 60.424C34.9647 58.8453 35.882 56.7547 35.882 54.152L37.354 54.088C37.354 58.7387 36.138 62.6213 33.706 65.736C31.3167 68.808 28.1167 70.344 24.106 70.344C19.4553 70.344 15.594 68.424 12.522 64.584C9.45 60.7013 7.914 55.4533 7.914 48.84C7.914 41.5867 9.53533 35.9547 12.778 31.944C16.0633 27.9333 20.394 25.928 25.77 25.928C29.9513 25.928 33.5993 27.208 36.714 29.768C39.8287 32.2853 42.0687 35.8907 43.434 40.584ZM21.994 46.856H43.626V68.936H35.882L38.57 59.464L35.882 58.376V54.152H21.994V46.856ZM48.0005 27.144H78.7205V34.44H55.7445V44.424H77.4405V51.72H55.7445V61.704H78.7205V69H48.0005V27.144ZM81.978 27.144H114.618V34.376H102.138V69H94.394V34.376H81.978V27.144ZM126.745 27.144V54.6C126.745 57.2027 127.47 59.2293 128.921 60.68C130.414 62.088 132.505 62.792 135.193 62.792C137.838 62.792 139.865 62.088 141.273 60.68C142.681 59.272 143.385 57.2453 143.385 54.6V27.144H151.193V55.304C151.193 59.6133 149.678 63.176 146.649 65.992C143.662 68.7653 139.843 70.152 135.193 70.152C130.371 70.152 126.467 68.7867 123.481 66.056C120.494 63.3253 119.001 59.7413 119.001 55.304V27.144H126.745ZM170.387 51.336H178.707L187.603 69H179.347L170.387 51.336ZM156.563 69V27.144H173.075C177.342 27.144 180.819 28.4667 183.507 31.112C186.238 33.7147 187.603 37.0427 187.603 41.096C187.603 45.0213 186.259 48.2 183.571 50.632C180.926 53.0213 177.427 54.216 173.075 54.216H164.307V69H156.563ZM164.307 46.92H172.371C174.803 46.92 176.638 46.408 177.875 45.384C179.155 44.36 179.795 42.8667 179.795 40.904C179.795 38.856 179.155 37.256 177.875 36.104C176.638 34.952 174.803 34.376 172.371 34.376H164.307V46.92ZM191.626 27.144H199.37V61.704H222.346V69H191.626V27.144ZM227.267 68.232C226.456 67.4213 226.051 66.4187 226.051 65.224C226.051 64.0293 226.456 63.0267 227.267 62.216C228.078 61.4053 229.08 61 230.275 61C231.47 61 232.472 61.4053 233.283 62.216C234.094 63.0267 234.499 64.0293 234.499 65.224C234.499 66.4187 234.094 67.4213 233.283 68.232C232.472 69 231.47 69.384 230.275 69.384C229.08 69.384 228.078 69 227.267 68.232ZM247.761 51.4H267.665V58.632H247.761V51.4ZM256.465 37.384L245.969 69H237.585L251.729 27.144H263.441L277.649 69H269.329L258.705 37.384L258.001 33.8H257.169L256.465 37.384ZM281.313 69V27.144H297.569C301.921 27.144 305.462 28.424 308.193 30.984C310.966 33.544 312.353 36.8507 312.353 40.904C312.353 44.7867 310.988 47.944 308.257 50.376C305.526 52.7653 301.964 53.96 297.569 53.96H289.057V69H281.313ZM289.057 46.728H296.929C299.361 46.728 301.238 46.216 302.561 45.192C303.884 44.1253 304.545 42.632 304.545 40.712C304.545 38.664 303.884 37.1067 302.561 36.04C301.281 34.9307 299.404 34.376 296.929 34.376H289.057V46.728ZM316.376 69V27.144H332.632C336.984 27.144 340.525 28.424 343.256 30.984C346.029 33.544 347.416 36.8507 347.416 40.904C347.416 44.7867 346.05 47.944 343.32 50.376C340.589 52.7653 337.026 53.96 332.632 53.96H324.12V69H316.376ZM324.12 46.728H331.992C334.424 46.728 336.301 46.216 337.624 45.192C338.946 44.1253 339.608 42.632 339.608 40.712C339.608 38.664 338.946 37.1067 337.624 36.04C336.344 34.9307 334.466 34.376 331.992 34.376H324.12V46.728Z" fill="#0D0D0D"/>
<mask id="mask0_1_294" style="mask-type:alpha" maskUnits="userSpaceOnUse" x="0" y="11" width="230" height="70">
<rect y="11" width="230" height="70" rx="12" fill="#8F4CF8"/>
<rect x="0.5" y="11.5" width="229" height="69" rx="11.5" stroke="white" stroke-opacity="0.15"/>
</mask>
<g mask="url(#mask0_1_294)">
<path d="M43.434 40.584L35.882 42.056C34.346 36.296 31.082 33.416 26.09 33.416C22.8473 33.416 20.3087 34.7173 18.474 37.32C16.6393 39.88 15.722 43.528 15.722 48.264C15.722 52.7867 16.682 56.328 18.602 58.888C20.5647 61.448 23.1033 62.728 26.218 62.728C29.034 62.728 31.338 61.96 33.13 60.424C34.9647 58.8453 35.882 56.7547 35.882 54.152L37.354 54.088C37.354 58.7387 36.138 62.6213 33.706 65.736C31.3167 68.808 28.1167 70.344 24.106 70.344C19.4553 70.344 15.594 68.424 12.522 64.584C9.45 60.7013 7.914 55.4533 7.914 48.84C7.914 41.5867 9.53533 35.9547 12.778 31.944C16.0633 27.9333 20.394 25.928 25.77 25.928C29.9513 25.928 33.5993 27.208 36.714 29.768C39.8287 32.2853 42.0687 35.8907 43.434 40.584ZM21.994 46.856H43.626V68.936H35.882L38.57 59.464L35.882 58.376V54.152H21.994V46.856ZM48.0005 27.144H78.7205V34.44H55.7445V44.424H77.4405V51.72H55.7445V61.704H78.7205V69H48.0005V27.144ZM81.978 27.144H114.618V34.376H102.138V69H94.394V34.376H81.978V27.144ZM126.745 27.144V54.6C126.745 57.2027 127.47 59.2293 128.921 60.68C130.414 62.088 132.505 62.792 135.193 62.792C137.838 62.792 139.865 62.088 141.273 60.68C142.681 59.272 143.385 57.2453 143.385 54.6V27.144H151.193V55.304C151.193 59.6133 149.678 63.176 146.649 65.992C143.662 68.7653 139.843 70.152 135.193 70.152C130.371 70.152 126.467 68.7867 123.481 66.056C120.494 63.3253 119.001 59.7413 119.001 55.304V27.144H126.745ZM170.387 51.336H178.707L187.603 69H179.347L170.387 51.336ZM156.563 69V27.144H173.075C177.342 27.144 180.819 28.4667 183.507 31.112C186.238 33.7147 187.603 37.0427 187.603 41.096C187.603 45.0213 186.259 48.2 183.571 50.632C180.926 53.0213 177.427 54.216 173.075 54.216H164.307V69H156.563ZM164.307 46.92H172.371C174.803 46.92 176.638 46.408 177.875 45.384C179.155 44.36 179.795 42.8667 179.795 40.904C179.795 38.856 179.155 37.256 177.875 36.104C176.638 34.952 174.803 34.376 172.371 34.376H164.307V46.92ZM191.626 27.144H199.37V61.704H222.346V69H191.626V27.144ZM227.267 68.232C226.456 67.4213 226.051 66.4187 226.051 65.224C226.051 64.0293 226.456 63.0267 227.267 62.216C228.078 61.4053 229.08 61 230.275 61C231.47 61 232.472 61.4053 233.283 62.216C234.094 63.0267 234.499 64.0293 234.499 65.224C234.499 66.4187 234.094 67.4213 233.283 68.232C232.472 69 231.47 69.384 230.275 69.384C229.08 69.384 228.078 69 227.267 68.232ZM247.761 51.4H267.665V58.632H247.761V51.4ZM256.465 37.384L245.969 69H237.585L251.729 27.144H263.441L277.649 69H269.329L258.705 37.384L258.001 33.8H257.169L256.465 37.384ZM281.313 69V27.144H297.569C301.921 27.144 305.462 28.424 308.193 30.984C310.966 33.544 312.353 36.8507 312.353 40.904C312.353 44.7867 310.988 47.944 308.257 50.376C305.526 52.7653 301.964 53.96 297.569 53.96H289.057V69H281.313ZM289.057 46.728H296.929C299.361 46.728 301.238 46.216 302.561 45.192C303.884 44.1253 304.545 42.632 304.545 40.712C304.545 38.664 303.884 37.1067 302.561 36.04C301.281 34.9307 299.404 34.376 296.929 34.376H289.057V46.728ZM316.376 69V27.144H332.632C336.984 27.144 340.525 28.424 343.256 30.984C346.029 33.544 347.416 36.8507 347.416 40.904C347.416 44.7867 346.05 47.944 343.32 50.376C340.589 52.7653 337.026 53.96 332.632 53.96H324.12V69H316.376ZM324.12 46.728H331.992C334.424 46.728 336.301 46.216 337.624 45.192C338.946 44.1253 339.608 42.632 339.608 40.712C339.608 38.664 338.946 37.1067 337.624 36.04C336.344 34.9307 334.466 34.376 331.992 34.376H324.12V46.728Z" fill="white"/>
</g>
</svg>
