<svg width="106" height="35" viewBox="0 0 106 35" fill="none" xmlns="http://www.w3.org/2000/svg">
<rect x="0.686646" y="0.5" width="104.627" height="34" rx="17" fill="#0D0D0D"/>
<path d="M17.9178 14.4048L16.416 14.7401C15.622 11.7653 13.9735 10.2778 11.4705 10.2778C9.84792 10.2778 8.57918 10.9054 7.6643 12.1607C6.74943 13.416 6.29199 15.1958 6.29199 17.5C6.29199 19.7699 6.77532 21.541 7.74198 22.8135C8.70864 24.086 9.96877 24.7223 11.5223 24.7223C12.9378 24.7223 14.103 24.215 15.0178 23.2004C15.95 22.1859 16.416 20.836 16.416 19.1508H16.8562C16.8562 21.1799 16.3297 22.8737 15.2768 24.2322C14.2238 25.5734 12.8256 26.2441 11.0821 26.2441C9.23514 26.2441 7.70746 25.4874 6.49913 23.9742C5.29081 22.4438 4.68665 20.3631 4.68665 17.7322C4.68665 14.8949 5.29081 12.6938 6.49913 11.129C7.72472 9.54699 9.33869 8.75598 11.3411 8.75598C12.8946 8.75598 14.2497 9.24604 15.4062 10.2262C16.58 11.2064 17.4172 12.5993 17.9178 14.4048ZM9.81339 17.6548H17.9955V25.8314H16.416L17.0892 21.0337L16.416 20.9048V19.1508H9.81339V17.6548Z" fill="white"/>
<path d="M21.2618 20.3373C21.3654 21.7646 21.7797 22.8651 22.5047 23.6389C23.247 24.4127 24.2481 24.7996 25.5083 24.7996C26.5267 24.7996 27.3725 24.5331 28.0457 24C28.7362 23.4497 29.1764 22.7103 29.3663 21.7818L30.868 22.0913C30.5746 23.3982 29.9531 24.4213 29.0037 25.1607C28.0543 25.883 26.8892 26.2441 25.5083 26.2441C23.6785 26.2441 22.2371 25.6766 21.1841 24.5417C20.1485 23.4068 19.6306 21.8506 19.6306 19.873C19.6306 17.9127 20.1226 16.3737 21.1065 15.256C22.1077 14.121 23.48 13.5536 25.2234 13.5536C26.9841 13.5536 28.3651 14.121 29.3663 15.256C30.3674 16.3737 30.868 17.8611 30.868 19.7183V20.3373H21.2618ZM21.3136 19.0477H29.2368C29.2368 17.8783 28.857 16.9068 28.0975 16.133C27.338 15.3591 26.38 14.9723 25.2234 14.9723C24.1187 14.9723 23.2297 15.3247 22.5565 16.0298C21.8832 16.7348 21.469 17.7408 21.3136 19.0477Z" fill="white"/>
<path d="M35.698 15.4365V22.1944C35.698 23.1746 35.8015 23.7851 36.0087 24.0258C36.2331 24.2665 36.7509 24.3869 37.5623 24.3869H39.7631V25.8571H37.1738C36.1554 25.8571 35.3873 25.6164 34.8694 25.1349C34.3516 24.6362 34.0926 23.7592 34.0926 22.504V15.4365H31.5552V13.9921H34.0926V10.5099L35.698 10.2262V13.9921H39.7631V15.4365H35.698Z" fill="white"/>
<path d="M88.3182 4.5H56.7584C49.5813 4.5 43.7632 10.3203 43.7632 17.5C43.7632 24.6797 49.5813 30.5 56.7584 30.5H88.3182C95.4953 30.5 101.313 24.6797 101.313 17.5C101.313 10.3203 95.4953 4.5 88.3182 4.5Z" fill="#8F4CF8"/>
<path d="M55.9479 9.60718L54.2413 19.3448C54.1216 20.056 54.3235 20.6083 54.8474 21.0018C55.3714 21.3801 56.172 21.5692 57.2502 21.5692C58.313 21.5692 59.1586 21.3801 59.7875 21.0018C60.4312 20.6083 60.8127 20.056 60.9325 19.3448L62.639 9.60718H66.1867L64.4351 19.5945C64.1659 21.1531 63.2976 22.4318 61.8305 23.4305C60.3788 24.4292 58.6574 24.9286 56.6663 24.9286C54.6005 24.9286 53.0137 24.4368 51.9059 23.4532C50.8132 22.4696 50.4016 21.1834 50.671 19.5945L52.4224 9.60718H55.9479Z" fill="white"/>
<path d="M72.7933 18.1872H76.6102L78.8783 24.4519H75.106L72.7933 18.1872ZM65.5178 24.4519L68.1224 9.60718H75.4652C77.2316 9.60718 78.5864 10.0914 79.5295 11.0599C80.4874 12.0283 80.8392 13.2692 80.5848 14.7824C80.33 16.2351 79.5666 17.4079 78.2944 18.3006C77.0218 19.1935 75.4949 19.6399 73.7136 19.6399H69.8963L69.0432 24.4519H65.5178ZM70.4801 16.3259H74.0729C74.9264 16.3259 75.6072 16.1897 76.1163 15.9173C76.6403 15.6298 76.9471 15.2288 77.0367 14.7143C77.1416 14.1393 76.9847 13.7005 76.5651 13.3978C76.1614 13.08 75.5251 12.9212 74.6567 12.9212H71.064L70.4801 16.3259Z" fill="white"/>
<path d="M82.9458 9.60718H86.4712L84.4505 21.1153H94.2178L93.6339 24.4519H80.3412L82.9458 9.60718Z" fill="white"/>
</svg>
