<svg width="97" height="26" viewBox="0 0 97 26" fill="none" xmlns="http://www.w3.org/2000/svg">
<g clip-path="url(#clip0_2010_527)">
<path d="M13.5614 9.90481L12.0596 10.2401C11.2655 7.26525 9.61703 5.77782 7.11406 5.77782C5.49147 5.77782 4.22273 6.40544 3.30786 7.66073C2.39298 8.91602 1.93555 10.6958 1.93555 13C1.93555 15.2699 2.41888 17.041 3.38554 18.3135C4.35219 19.586 5.61233 20.2223 7.16586 20.2223C8.58132 20.2223 9.74652 19.715 10.6614 18.7004C11.5935 17.6859 12.0596 16.336 12.0596 14.6508H12.4997C12.4997 16.6799 11.9733 18.3737 10.9203 19.7322C9.86733 21.0734 8.46914 21.7441 6.72569 21.7441C4.8787 21.7441 3.35101 20.9874 2.14269 19.4742C0.934364 17.9438 0.3302 15.8631 0.3302 13.2322C0.3302 10.3949 0.934364 8.19383 2.14269 6.629C3.36827 5.04699 4.98224 4.25598 6.98462 4.25598C8.5382 4.25598 9.89323 4.74604 11.0498 5.72624C12.2235 6.70639 13.0608 8.09925 13.5614 9.90481ZM5.45694 13.1548H13.6391V21.3314H12.0596L12.7328 16.5337L12.0596 16.4048V14.6508H5.45694V13.1548Z" fill="white"/>
<path d="M16.9054 15.8373C17.009 17.2646 17.4233 18.3651 18.1482 19.1389C18.8905 19.9127 19.8917 20.2996 21.1518 20.2996C22.1702 20.2996 23.0161 20.0331 23.6893 19.5C24.3797 18.9497 24.8199 18.2103 25.0098 17.2818L26.5116 17.5913C26.2181 18.8982 25.5967 19.9213 24.6473 20.6607C23.6979 21.383 22.5327 21.7441 21.1518 21.7441C19.322 21.7441 17.8807 21.1766 16.8277 20.0417C15.792 18.9068 15.2742 17.3506 15.2742 15.373C15.2742 13.4127 15.7661 11.8737 16.7501 10.756C17.7512 9.62104 19.1235 9.05359 20.867 9.05359C22.6277 9.05359 24.0086 9.62104 25.0098 10.756C26.011 11.8737 26.5116 13.3611 26.5116 15.2183V15.8373H16.9054ZM16.9572 14.5477H24.8803C24.8803 13.3783 24.5006 12.4068 23.7411 11.633C22.9815 10.8591 22.0235 10.4723 20.867 10.4723C19.7622 10.4723 18.8732 10.8247 18.2 11.5298C17.5268 12.2348 17.1125 13.2408 16.9572 14.5477Z" fill="white"/>
<path d="M31.3416 10.9365V17.6944C31.3416 18.6746 31.4451 19.2851 31.6522 19.5258C31.8766 19.7665 32.3945 19.8869 33.2058 19.8869H35.4067V21.3571H32.8174C31.799 21.3571 31.0308 21.1164 30.513 20.6349C29.9951 20.1362 29.7362 19.2592 29.7362 18.004V10.9365H27.1987V9.49206H29.7362V6.00992L31.3416 5.7262V9.49206H35.4067V10.9365H31.3416Z" fill="white"/>
<path d="M83.6747 0H52.1148C44.9378 0 39.1196 5.8203 39.1196 13C39.1196 20.1797 44.9378 26 52.1148 26H83.6747C90.8517 26 96.6699 20.1797 96.6699 13C96.6699 5.8203 90.8517 0 83.6747 0Z" fill="#8F4CF8"/>
<path d="M51.3042 5.10718L49.5976 14.8448C49.4779 15.556 49.6798 16.1083 50.2038 16.5018C50.7278 16.8801 51.5284 17.0692 52.6065 17.0692C53.6693 17.0692 54.5149 16.8801 55.1438 16.5018C55.7875 16.1083 56.169 15.556 56.2888 14.8448L57.9953 5.10718H61.543L59.7915 15.0945C59.5223 16.6531 58.6539 17.9318 57.1868 18.9305C55.7351 19.9292 54.0137 20.4286 52.0226 20.4286C49.9569 20.4286 48.3701 19.9368 47.2622 18.9532C46.1695 17.9696 45.7579 16.6834 46.0273 15.0945L47.7788 5.10718H51.3042Z" fill="white"/>
<path d="M68.1497 13.6872H71.9666L74.2347 19.9519H70.4624L68.1497 13.6872ZM60.8743 19.9519L63.4789 5.10718H70.8216C72.5881 5.10718 73.9428 5.59143 74.8859 6.55988C75.8438 7.52833 76.1956 8.76918 75.9413 10.2824C75.6865 11.7351 74.923 12.9079 73.6509 13.8006C72.3783 14.6935 70.8513 15.1399 69.0701 15.1399H65.2527L64.3997 19.9519H60.8743ZM65.8366 11.8259H69.4293C70.2828 11.8259 70.9637 11.6897 71.4728 11.4173C71.9968 11.1298 72.3036 10.7288 72.3931 10.2143C72.498 9.6393 72.3412 9.20046 71.9216 8.89779C71.5178 8.58003 70.8815 8.42116 70.0132 8.42116H66.4204L65.8366 11.8259Z" fill="white"/>
<path d="M78.3022 5.10718H81.8277L79.8069 16.6153H89.5742L88.9903 19.9519H75.6976L78.3022 5.10718Z" fill="white"/>
</g>
<defs>
<clipPath id="clip0_2010_527">
<rect width="97" height="26" fill="white"/>
</clipPath>
</defs>
</svg>
