<svg width="32" height="32" viewBox="0 0 32 32" fill="none" xmlns="http://www.w3.org/2000/svg">
<path d="M2.66663 12V8.66666C2.66663 5.34666 5.34663 2.66666 8.66663 2.66666H12" stroke="#5E6567" stroke-width="1.5" stroke-linecap="round" stroke-linejoin="round"/>
<path d="M20 2.66666H23.3333C26.6533 2.66666 29.3333 5.34666 29.3333 8.66666V12" stroke="#5E6567" stroke-width="1.5" stroke-linecap="round" stroke-linejoin="round"/>
<path d="M29.3334 21.3333V23.3333C29.3334 26.6533 26.6534 29.3333 23.3334 29.3333H21.3334" stroke="#5E6567" stroke-width="1.5" stroke-linecap="round" stroke-linejoin="round"/>
<path d="M12 29.3333H8.66663C5.34663 29.3333 2.66663 26.6533 2.66663 23.3333V20" stroke="#5E6567" stroke-width="1.5" stroke-linecap="round" stroke-linejoin="round"/>
<path d="M14 9.33334V12C14 13.3333 13.3334 14 12 14H9.33337C8.00004 14 7.33337 13.3333 7.33337 12V9.33334C7.33337 8.00001 8.00004 7.33334 9.33337 7.33334H12C13.3334 7.33334 14 8.00001 14 9.33334Z" stroke="#5E6567" stroke-width="1.5" stroke-linecap="round" stroke-linejoin="round"/>
<path d="M24.6667 9.33334V12C24.6667 13.3333 24 14 22.6667 14H20C18.6667 14 18 13.3333 18 12V9.33334C18 8.00001 18.6667 7.33334 20 7.33334H22.6667C24 7.33334 24.6667 8.00001 24.6667 9.33334Z" stroke="#5E6567" stroke-width="1.5" stroke-linecap="round" stroke-linejoin="round"/>
<path d="M14 20V22.6667C14 24 13.3334 24.6667 12 24.6667H9.33337C8.00004 24.6667 7.33337 24 7.33337 22.6667V20C7.33337 18.6667 8.00004 18 9.33337 18H12C13.3334 18 14 18.6667 14 20Z" stroke="#5E6567" stroke-width="1.5" stroke-linecap="round" stroke-linejoin="round"/>
<path d="M24.6667 20V22.6667C24.6667 24 24 24.6667 22.6667 24.6667H20C18.6667 24.6667 18 24 18 22.6667V20C18 18.6667 18.6667 18 20 18H22.6667C24 18 24.6667 18.6667 24.6667 20Z" stroke="#5E6567" stroke-width="1.5" stroke-linecap="round" stroke-linejoin="round"/>
</svg>
